<svg width="49" height="54" viewBox="0 0 49 54" fill="none" xmlns="http://www.w3.org/2000/svg">
<path fill-rule="evenodd" clip-rule="evenodd" d="M18 25C18 23.6193 19.1193 22.5 20.5 22.5C21.8807 22.5 23 23.6193 23 25C23 26.3807 21.8807 27.5 20.5 27.5C19.1193 27.5 18 26.3807 18 25ZM20.5 23.5C19.6716 23.5 19 24.1716 19 25C19 25.8284 19.6716 26.5 20.5 26.5C21.3284 26.5 22 25.8284 22 25C22 24.1716 21.3284 23.5 20.5 23.5Z" fill="#414141"/>
<path fill-rule="evenodd" clip-rule="evenodd" d="M30 25C30 23.6193 31.1193 22.5 32.5 22.5C33.8807 22.5 35 23.6193 35 25C35 26.3807 33.8807 27.5 32.5 27.5C31.1193 27.5 30 26.3807 30 25ZM32.5 23.5C31.6716 23.5 31 24.1716 31 25C31 25.8284 31.6716 26.5 32.5 26.5C33.3284 26.5 34 25.8284 34 25C34 24.1716 33.3284 23.5 32.5 23.5Z" fill="#414141"/>
<path fill-rule="evenodd" clip-rule="evenodd" d="M13.5 4.5C13.2239 4.5 13 4.72386 13 5C13 5.27614 13.2239 5.5 13.5 5.5H17.0805C17.8378 9.79147 18.6033 14.0643 19.2493 18.3709C19.4329 19.5947 20.4842 20.5 21.7217 20.5H31.8597C33.0514 20.5 34.0774 19.6588 34.3111 18.4903L35.7503 11.2942C35.936 10.366 35.226 9.5 34.2795 9.5H19.6605C19.3575 9.5 19.078 9.58901 18.8444 9.74093L17.9924 4.91311C17.9502 4.67418 17.7426 4.5 17.5 4.5H13.5ZM19.166 11.0742C19.1207 10.7719 19.3548 10.5 19.6605 10.5H34.2795C34.595 10.5 34.8316 10.7887 34.7698 11.0981L33.3305 18.2942C33.1903 18.9953 32.5747 19.5 31.8597 19.5H21.7217C20.9792 19.5 20.3484 18.9568 20.2382 18.2225L19.166 11.0742Z" fill="#414141"/>
<rect x="24.3604" width="11.28" height="11" rx="4" fill="#FF6633"/>
<path d="M30.8804 9C30.8137 9 30.757 8.98 30.7104 8.94C30.6704 8.89333 30.6504 8.83667 30.6504 8.77V3.17L28.9904 4.45C28.9437 4.49 28.8937 4.51 28.8404 4.51C28.7804 4.51 28.7237 4.47667 28.6704 4.41L28.4104 4.08C28.377 4.03333 28.3604 3.98667 28.3604 3.94C28.3604 3.86 28.3937 3.79667 28.4604 3.75L30.6404 2.07C30.7137 2.02333 30.8004 2 30.9004 2H31.4104C31.477 2 31.5304 2.02333 31.5704 2.07C31.617 2.11 31.6404 2.16333 31.6404 2.23V8.77C31.6404 8.83667 31.617 8.89333 31.5704 8.94C31.5304 8.98 31.477 9 31.4104 9H30.8804Z" fill="white"/>
<path d="M1.45086 49C1.36286 49 1.29486 48.976 1.24686 48.928C1.19886 48.872 1.17486 48.804 1.17486 48.724V40.888C1.17486 40.8 1.19886 40.732 1.24686 40.684C1.29486 40.628 1.36286 40.6 1.45086 40.6H2.06286C2.15086 40.6 2.21886 40.628 2.26686 40.684C2.32286 40.732 2.35086 40.8 2.35086 40.888V44.2H3.70686L5.84286 40.792C5.88286 40.728 5.93486 40.68 5.99886 40.648C6.06286 40.616 6.14686 40.6 6.25086 40.6H6.89886C6.98686 40.6 7.05086 40.624 7.09086 40.672C7.13086 40.72 7.15086 40.776 7.15086 40.84C7.15086 40.888 7.13086 40.94 7.09086 40.996L4.78686 44.668L7.31886 48.58C7.34286 48.612 7.35486 48.656 7.35486 48.712C7.35486 48.792 7.32686 48.86 7.27086 48.916C7.22286 48.972 7.15886 49 7.07886 49H6.39486C6.30686 49 6.23886 48.984 6.19086 48.952C6.15086 48.912 6.11486 48.868 6.08286 48.82L3.75486 45.28H2.35086V48.724C2.35086 48.804 2.32286 48.872 2.26686 48.928C2.21886 48.976 2.15086 49 2.06286 49H1.45086ZM10.8874 49.12C10.2794 49.12 9.77136 49.004 9.36336 48.772C8.95536 48.54 8.64336 48.22 8.42736 47.812C8.21136 47.396 8.09136 46.924 8.06736 46.396C8.05936 46.26 8.05536 46.088 8.05536 45.88C8.05536 45.664 8.05936 45.492 8.06736 45.364C8.09136 44.828 8.21136 44.356 8.42736 43.948C8.65136 43.54 8.96736 43.22 9.37536 42.988C9.78336 42.756 10.2874 42.64 10.8874 42.64C11.4874 42.64 11.9914 42.756 12.3994 42.988C12.8074 43.22 13.1194 43.54 13.3354 43.948C13.5594 44.356 13.6834 44.828 13.7074 45.364C13.7154 45.492 13.7194 45.664 13.7194 45.88C13.7194 46.088 13.7154 46.26 13.7074 46.396C13.6834 46.924 13.5634 47.396 13.3474 47.812C13.1314 48.22 12.8194 48.54 12.4114 48.772C12.0034 49.004 11.4954 49.12 10.8874 49.12ZM10.8874 48.196C11.3834 48.196 11.7794 48.04 12.0754 47.728C12.3714 47.408 12.5314 46.944 12.5554 46.336C12.5634 46.216 12.5674 46.064 12.5674 45.88C12.5674 45.696 12.5634 45.544 12.5554 45.424C12.5314 44.816 12.3714 44.356 12.0754 44.044C11.7794 43.724 11.3834 43.564 10.8874 43.564C10.3914 43.564 9.99136 43.724 9.68736 44.044C9.39136 44.356 9.23536 44.816 9.21936 45.424C9.21136 45.544 9.20736 45.696 9.20736 45.88C9.20736 46.064 9.21136 46.216 9.21936 46.336C9.23536 46.944 9.39136 47.408 9.68736 47.728C9.99136 48.04 10.3914 48.196 10.8874 48.196ZM15.51 51.28C15.43 51.28 15.362 51.252 15.306 51.196C15.258 51.148 15.234 51.084 15.234 51.004V43.036C15.234 42.956 15.258 42.892 15.306 42.844C15.362 42.788 15.43 42.76 15.51 42.76H16.062C16.142 42.76 16.206 42.788 16.254 42.844C16.31 42.892 16.338 42.956 16.338 43.036V43.564C16.53 43.3 16.786 43.08 17.106 42.904C17.426 42.728 17.826 42.64 18.306 42.64C18.754 42.64 19.134 42.716 19.446 42.868C19.766 43.02 20.026 43.228 20.226 43.492C20.434 43.756 20.59 44.056 20.694 44.392C20.798 44.728 20.854 45.088 20.862 45.472C20.87 45.6 20.874 45.736 20.874 45.88C20.874 46.024 20.87 46.16 20.862 46.288C20.854 46.664 20.798 47.024 20.694 47.368C20.59 47.704 20.434 48.004 20.226 48.268C20.026 48.524 19.766 48.732 19.446 48.892C19.134 49.044 18.754 49.12 18.306 49.12C17.842 49.12 17.45 49.036 17.13 48.868C16.818 48.692 16.562 48.476 16.362 48.22V51.004C16.362 51.084 16.338 51.148 16.29 51.196C16.242 51.252 16.174 51.28 16.086 51.28H15.51ZM18.054 48.148C18.47 48.148 18.794 48.06 19.026 47.884C19.266 47.7 19.438 47.464 19.542 47.176C19.646 46.88 19.706 46.564 19.722 46.228C19.73 45.996 19.73 45.764 19.722 45.532C19.706 45.196 19.646 44.884 19.542 44.596C19.438 44.3 19.266 44.064 19.026 43.888C18.794 43.704 18.47 43.612 18.054 43.612C17.662 43.612 17.342 43.704 17.094 43.888C16.854 44.072 16.674 44.308 16.554 44.596C16.442 44.876 16.378 45.164 16.362 45.46C16.354 45.588 16.35 45.74 16.35 45.916C16.35 46.092 16.354 46.248 16.362 46.384C16.37 46.664 16.434 46.94 16.554 47.212C16.682 47.484 16.87 47.708 17.118 47.884C17.366 48.06 17.678 48.148 18.054 48.148ZM24.5424 49.12C24.0704 49.12 23.6704 49.064 23.3424 48.952C23.0224 48.832 22.7624 48.684 22.5624 48.508C22.3704 48.324 22.2304 48.136 22.1424 47.944C22.0544 47.744 22.0064 47.56 21.9984 47.392C21.9984 47.32 22.0224 47.264 22.0704 47.224C22.1184 47.176 22.1744 47.152 22.2384 47.152H22.8024C22.8744 47.152 22.9344 47.172 22.9824 47.212C23.0304 47.244 23.0664 47.304 23.0904 47.392C23.1864 47.696 23.3704 47.908 23.6424 48.028C23.9144 48.148 24.2464 48.208 24.6384 48.208C24.8944 48.208 25.1304 48.176 25.3464 48.112C25.5624 48.04 25.7304 47.928 25.8504 47.776C25.9784 47.624 26.0424 47.436 26.0424 47.212C26.0424 46.884 25.9464 46.636 25.7544 46.468C25.5704 46.3 25.2824 46.216 24.8904 46.216H24.2304C24.1504 46.216 24.0864 46.192 24.0384 46.144C23.9904 46.096 23.9664 46.032 23.9664 45.952V45.628C23.9664 45.556 23.9904 45.496 24.0384 45.448C24.0864 45.392 24.1504 45.364 24.2304 45.364H24.8184C25.1464 45.364 25.3984 45.3 25.5744 45.172C25.7504 45.044 25.8384 44.84 25.8384 44.56C25.8384 44.392 25.7984 44.232 25.7184 44.08C25.6384 43.928 25.5024 43.804 25.3104 43.708C25.1264 43.604 24.8704 43.552 24.5424 43.552C24.0784 43.552 23.7504 43.632 23.5584 43.792C23.3744 43.944 23.2424 44.172 23.1624 44.476C23.1304 44.564 23.0904 44.624 23.0424 44.656C23.0024 44.688 22.9424 44.704 22.8624 44.704H22.3224C22.2504 44.704 22.1904 44.684 22.1424 44.644C22.0944 44.604 22.0704 44.548 22.0704 44.476C22.0784 44.236 22.1304 44.008 22.2264 43.792C22.3304 43.576 22.4824 43.38 22.6824 43.204C22.8904 43.028 23.1464 42.892 23.4504 42.796C23.7624 42.692 24.1264 42.64 24.5424 42.64C25.1424 42.64 25.6144 42.732 25.9584 42.916C26.3104 43.1 26.5584 43.328 26.7024 43.6C26.8544 43.864 26.9304 44.128 26.9304 44.392C26.9304 44.704 26.8784 44.964 26.7744 45.172C26.6784 45.38 26.4864 45.556 26.1984 45.7C26.5584 45.836 26.8064 46.04 26.9424 46.312C27.0784 46.584 27.1504 46.9 27.1584 47.26C27.1664 47.676 27.0544 48.02 26.8224 48.292C26.5984 48.564 26.2904 48.772 25.8984 48.916C25.5064 49.052 25.0544 49.12 24.5424 49.12ZM28.775 49C28.703 49 28.639 48.976 28.583 48.928C28.535 48.872 28.511 48.812 28.511 48.748V43.036C28.511 42.956 28.535 42.892 28.583 42.844C28.639 42.788 28.707 42.76 28.787 42.76H29.363C29.443 42.76 29.507 42.788 29.555 42.844C29.603 42.892 29.627 42.956 29.627 43.036V48.124L29.315 47.8L32.951 42.94C32.991 42.892 33.035 42.852 33.083 42.82C33.131 42.78 33.191 42.76 33.263 42.76H33.815C33.879 42.76 33.935 42.784 33.983 42.832C34.039 42.88 34.067 42.936 34.067 43V48.724C34.067 48.804 34.039 48.872 33.983 48.928C33.935 48.976 33.871 49 33.791 49H33.227C33.139 49 33.071 48.976 33.023 48.928C32.975 48.872 32.951 48.804 32.951 48.724V43.936L33.287 43.924L29.627 48.82C29.595 48.86 29.555 48.9 29.507 48.94C29.459 48.98 29.395 49 29.315 49H28.775ZM36.0995 49C36.0195 49 35.9515 48.976 35.8955 48.928C35.8475 48.872 35.8235 48.804 35.8235 48.724V43.036C35.8235 42.956 35.8475 42.892 35.8955 42.844C35.9515 42.788 36.0195 42.76 36.0995 42.76H36.6755C36.7555 42.76 36.8195 42.788 36.8675 42.844C36.9155 42.892 36.9395 42.956 36.9395 43.036V45.34H40.2155V43.036C40.2155 42.956 40.2395 42.892 40.2875 42.844C40.3435 42.788 40.4115 42.76 40.4915 42.76H41.0555C41.1355 42.76 41.1995 42.788 41.2475 42.844C41.3035 42.892 41.3315 42.956 41.3315 43.036V48.724C41.3315 48.804 41.3035 48.872 41.2475 48.928C41.1995 48.976 41.1355 49 41.0555 49H40.4915C40.4115 49 40.3435 48.976 40.2875 48.928C40.2395 48.872 40.2155 48.804 40.2155 48.724V46.3H36.9395V48.724C36.9395 48.804 36.9155 48.872 36.8675 48.928C36.8195 48.976 36.7555 49 36.6755 49H36.0995ZM44.876 49.12C44.476 49.12 44.112 49.04 43.784 48.88C43.456 48.72 43.192 48.504 42.992 48.232C42.792 47.96 42.692 47.652 42.692 47.308C42.692 46.756 42.916 46.316 43.364 45.988C43.812 45.66 44.396 45.444 45.116 45.34L46.904 45.088V44.74C46.904 44.356 46.792 44.056 46.568 43.84C46.352 43.624 45.996 43.516 45.5 43.516C45.14 43.516 44.848 43.588 44.624 43.732C44.408 43.876 44.256 44.06 44.168 44.284C44.12 44.404 44.036 44.464 43.916 44.464H43.376C43.288 44.464 43.22 44.44 43.172 44.392C43.132 44.336 43.112 44.272 43.112 44.2C43.112 44.08 43.156 43.932 43.244 43.756C43.34 43.58 43.484 43.408 43.676 43.24C43.868 43.072 44.112 42.932 44.408 42.82C44.712 42.7 45.08 42.64 45.512 42.64C45.992 42.64 46.396 42.704 46.724 42.832C47.052 42.952 47.308 43.116 47.492 43.324C47.684 43.532 47.82 43.768 47.9 44.032C47.988 44.296 48.032 44.564 48.032 44.836V48.724C48.032 48.804 48.004 48.872 47.948 48.928C47.9 48.976 47.836 49 47.756 49H47.204C47.116 49 47.048 48.976 47 48.928C46.952 48.872 46.928 48.804 46.928 48.724V48.208C46.824 48.352 46.684 48.496 46.508 48.64C46.332 48.776 46.112 48.892 45.848 48.988C45.584 49.076 45.26 49.12 44.876 49.12ZM45.128 48.22C45.456 48.22 45.756 48.152 46.028 48.016C46.3 47.872 46.512 47.652 46.664 47.356C46.824 47.06 46.904 46.688 46.904 46.24V45.904L45.512 46.108C44.944 46.188 44.516 46.324 44.228 46.516C43.94 46.7 43.796 46.936 43.796 47.224C43.796 47.448 43.86 47.636 43.988 47.788C44.124 47.932 44.292 48.04 44.492 48.112C44.7 48.184 44.912 48.22 45.128 48.22Z" fill="#414141"/>
</svg>
